<svg width="40" height="70" viewBox="0 0 40 70" fill="none" xmlns="http://www.w3.org/2000/svg">
<path d="M1.5296 1.5296C0.550199 2.50929 0 3.83787 0 5.22315C0 6.60844 0.550199 7.93702 1.5296 8.91671L27.3897 34.7769L1.5296 60.637C0.577955 61.6223 0.0513789 62.942 0.063282 64.3118C0.0751851 65.6815 0.624613 66.9918 1.59324 67.9605C2.56186 68.9291 3.87217 69.4785 5.24196 69.4904C6.61175 69.5023 7.9314 68.9758 8.91671 68.0241L38.4704 38.4704C39.4498 37.4907 40 36.1621 40 34.7769C40 33.3916 39.4498 32.063 38.4704 31.0833L8.91671 1.5296C7.93702 0.550196 6.60845 0 5.22316 0C3.83787 0 2.50929 0.550196 1.5296 1.5296Z" fill="#FF0000"/>
</svg>
