<svg width="40" height="70" viewBox="0 0 40 70" fill="none" xmlns="http://www.w3.org/2000/svg">
<path d="M38.4704 67.9626C39.4498 66.9829 40 65.6543 40 64.269C40 62.8837 39.4498 61.5552 38.4704 60.5755L12.6103 34.7153L38.4704 8.85519C39.422 7.86989 39.9486 6.55022 39.9367 5.18044C39.9248 3.81065 39.3754 2.50034 38.4068 1.53172C37.4381 0.563093 36.1278 0.0136655 34.758 0.00176239C33.3883 -0.0101407 32.0686 0.516436 31.0833 1.46808L1.52959 31.0218C0.550195 32.0015 0 33.33 0 34.7153C0 36.1006 0.550195 37.4292 1.52959 38.4089L31.0833 67.9626C32.063 68.942 33.3916 69.4922 34.7768 69.4922C36.1621 69.4922 37.4907 68.942 38.4704 67.9626Z" fill="#FF0000"/>
</svg>
